<?xml version="1.0" standalone="no"?>
<svg version="1.0" xmlns="http://www.w3.org/2000/svg"
 width="2048" height="2048" viewBox="0 0 2048 2048"
 preserveAspectRatio="xMidYMid meet">

<g transform="translate(692, 68)">
<g transform="translate(1024,0) scale(-1,1) translate(-1024,0)">
<g transform="translate(0,2048) scale(0.1,-0.1)" fill="#000000" stroke="none">
<path d="M19155 13244 c-44 -25 -118 -69 -165 -98 -47 -29 -197 -120 -335
-201 -137 -81 -383 -228 -545 -325 -162 -97 -385 -230 -495 -295 -110 -65
-222 -133 -250 -150 -53 -33 -665 -399 -725 -432 -19 -11 -161 -96 -315 -188
-154 -93 -281 -169 -282 -169 -1 -1 -6 -37 -12 -81 -68 -522 -127 -981 -156
-1210 -19 -154 -48 -383 -65 -510 -41 -316 -62 -496 -57 -501 6 -6 280 105
617 250 157 68 429 185 606 260 l321 137 144 142 c134 132 330 322 562 546 54
52 96 95 95 96 -4 4 -1015 -249 -1073 -268 -72 -24 -488 -127 -493 -122 -2 2
92 52 210 110 410 206 1380 700 1422 726 16 10 67 68 113 131 134 180 214 285
272 356 29 37 102 129 162 207 59 77 139 180 178 230 38 49 69 91 67 92 -3 3
-133 -56 -376 -170 -632 -296 -1081 -507 -1190 -560 -191 -92 -412 -197 -415
-197 -2 0 -42 -18 -90 -41 -48 -22 -89 -38 -91 -36 -3 2 80 62 183 131 103 70
222 151 263 179 392 271 585 404 755 524 110 77 238 167 285 199 442 305 416
284 449 349 40 79 106 199 141 255 15 25 49 86 75 135 26 50 55 104 65 120 52
87 231 418 228 421 -2 2 -40 -17 -83 -42z"/>
<path d="M15856 11218 c-26 -37 -157 -243 -368 -582 -31 -50 -91 -145 -133
-211 -42 -66 -123 -194 -180 -285 -171 -273 -228 -360 -232 -356 -2 2 22 68
52 147 66 168 158 430 153 435 -2 1 -24 -2 -48 -7 -38 -9 -610 -128 -835 -174
-38 -8 -110 -21 -159 -30 -93 -16 -117 -28 -258 -133 -60 -44 -74 -64 -109
-157 -15 -41 -29 -60 -48 -69 -14 -6 -69 -37 -122 -68 -107 -64 -109 -67 -134
-190 -24 -122 -23 -128 51 -225 37 -49 69 -94 71 -100 11 -27 20 -9 42 82 13
53 29 101 35 108 7 7 103 34 213 61 l200 49 84 -26 c46 -14 163 -50 259 -80
96 -30 188 -58 204 -62 29 -6 50 -25 356 -320 283 -274 564 -535 575 -535 6 0
17 60 28 153 38 327 98 810 122 977 14 96 56 434 95 750 39 316 79 640 89 720
10 80 17 146 16 148 -2 2 -10 -7 -19 -20z"/>
<path d="M16275 9149 c-49 -21 -106 -44 -125 -50 -19 -7 -39 -15 -45 -19 -5
-4 -62 -28 -125 -53 -63 -24 -145 -59 -182 -76 -76 -36 -66 -7 -98 -267 -24
-193 -42 -251 -151 -464 -43 -85 -128 -257 -188 -382 l-109 -226 -77 -54
c-286 -198 -329 -232 -366 -293 -20 -33 -32 -62 -28 -63 5 -2 51 17 102 41 50
25 138 68 195 96 l104 50 116 -61 c64 -33 138 -74 165 -89 26 -16 47 -24 47
-19 0 6 -29 71 -64 145 -59 123 -63 135 -47 148 9 8 126 94 261 191 505 363
590 428 590 446 0 10 -13 83 -30 163 -16 81 -30 152 -30 158 0 7 165 -155 368
-359 202 -205 374 -372 382 -372 8 0 170 -25 360 -55 190 -30 418 -67 507 -81
90 -14 168 -24 174 -22 7 2 -84 78 -201 168 -118 91 -288 224 -379 295 -91 72
-200 155 -241 185 -77 56 -177 134 -195 152 -12 13 31 -9 65 -32 14 -9 178
-97 365 -195 187 -98 394 -207 461 -242 l121 -63 392 0 c276 0 392 3 389 11
-2 6 -30 25 -63 43 -33 18 -114 63 -180 101 -66 37 -136 76 -155 87 -19 10
-42 22 -50 28 -24 15 -148 83 -235 130 -44 23 -134 73 -200 110 -170 94 -339
188 -415 229 -36 19 -117 64 -180 99 -63 35 -142 79 -175 97 -172 92 -215 115
-270 145 -33 18 -73 41 -90 50 -16 10 -61 35 -100 56 -165 89 -251 137 -259
145 -13 12 -9 13 -111 -32z"/>
<path d="M15157 8603 c-3 -10 -44 -106 -92 -213 -48 -107 -117 -265 -155 -350
-108 -249 -104 -242 -199 -317 -47 -38 -120 -97 -162 -133 -43 -36 -92 -77
-111 -92 l-33 -27 30 9 c17 4 80 30 140 57 61 28 139 60 175 72 l65 23 98 -46
c54 -25 100 -46 102 -46 1 0 -11 46 -28 102 -30 97 -31 102 -13 112 10 6 77
50 150 97 l131 85 63 106 c70 119 142 269 142 297 0 12 -45 61 -112 123 -62
56 -124 115 -139 131 -31 31 -45 34 -52 10z"/>
</g>
</g>
</g>
</svg>
