<?xml version="1.0" standalone="no"?>
<svg version="1.0" xmlns="http://www.w3.org/2000/svg"
 width="2048" height="2048" viewBox="0 0 2048 2048"
 preserveAspectRatio="xMidYMid meet">

<g transform="translate(0,2048) scale(0.1,-0.1)" fill="#000000" stroke="none">
<path d="M11460 13705 c-58 -41 -169 -118 -247 -171 l-142 -96 -11 -51 c-39
-179 -101 -479 -106 -518 -7 -55 -9 -52 111 -234 51 -77 184 -282 295 -455
112 -173 245 -379 296 -458 l94 -143 0 -179 0 -178 -42 -42 c-50 -49 -120 -87
-176 -96 -50 -8 -55 -3 -156 168 -44 73 -91 153 -106 178 -15 25 -38 64 -51
88 -12 23 -25 42 -29 42 -3 0 -25 -48 -48 -107 -22 -60 -62 -162 -88 -228 -25
-66 -54 -142 -64 -170 -51 -145 -76 -211 -165 -440 -94 -240 -148 -395 -141
-402 2 -2 176 55 387 127 211 72 445 151 519 175 74 25 140 48 145 53 16 11
129 142 274 315 l133 159 -12 306 -11 306 -81 120 c-45 67 -111 164 -147 216
-36 52 -107 158 -159 235 -108 160 -325 480 -389 573 -51 74 -51 81 -23 260
18 111 24 129 45 145 14 11 49 39 78 63 l52 44 20 -24 c11 -13 41 -53 67 -89
52 -74 64 -81 251 -158 169 -70 157 -68 146 -22 -55 232 -90 376 -99 397 -5
14 -6 27 -2 30 5 3 80 -24 167 -59 88 -35 161 -62 163 -60 2 2 -29 79 -71 172
l-74 168 -89 22 c-150 38 -337 81 -374 87 -31 4 -47 -3 -140 -69z"/>
<path d="M12044 13253 c3 -10 14 -56 24 -103 40 -178 207 -830 212 -830 4 0
30 75 59 168 28 92 72 232 98 312 l45 144 -23 19 c-13 10 -71 55 -128 100
-129 102 -273 207 -284 207 -5 0 -6 -8 -3 -17z"/>
<path d="M10415 11669 c-148 -3 -383 -7 -521 -8 l-252 -1 -25 -52 c-29 -60
-165 -372 -267 -613 -118 -279 -230 -538 -251 -584 -11 -24 -18 -45 -16 -47 4
-4 185 115 322 212 55 39 143 100 195 136 150 102 299 205 485 335 44 31 161
113 260 182 302 209 318 221 390 272 39 27 109 77 158 110 48 33 87 62 87 64
0 6 -192 4 -565 -6z"/>
<path d="M10998 11527 c-14 -12 -70 -52 -125 -89 -54 -37 -173 -121 -265 -185
-92 -65 -211 -147 -263 -183 -52 -36 -137 -95 -188 -131 -50 -36 -146 -102
-212 -147 -66 -46 -158 -110 -205 -143 -47 -32 -110 -76 -140 -97 -30 -20 -59
-40 -65 -45 -5 -4 -22 -16 -37 -25 -14 -9 -84 -58 -155 -108 -70 -49 -147
-103 -170 -120 -23 -16 -42 -32 -43 -35 0 -3 116 -25 258 -48 260 -43 514 -90
520 -96 5 -4 -129 -201 -257 -380 -55 -77 -122 -171 -148 -210 -26 -38 -95
-135 -152 -215 -271 -378 -284 -397 -273 -403 12 -8 276 -108 597 -227 165
-61 355 -132 422 -158 l123 -47 0 -867 0 -868 422 0 c262 0 418 4 412 9 -8 8
-231 95 -641 249 -90 33 -93 35 -93 66 0 27 36 823 56 1214 3 72 9 132 12 132
3 0 62 -22 131 -49 70 -27 158 -61 198 -75 39 -15 76 -33 81 -39 5 -7 52 -104
105 -217 118 -254 229 -482 232 -478 4 5 -16 652 -20 666 -3 7 -24 21 -47 31
-24 10 -88 40 -143 66 -153 72 -194 90 -275 125 -41 18 -113 50 -158 71 -46
22 -88 39 -94 39 -5 0 -7 33 -4 83 3 45 8 136 11 202 5 106 26 511 55 1078
l10 189 56 141 c72 182 223 575 284 742 27 72 67 175 90 230 23 55 50 125 60
155 10 30 30 86 45 124 32 84 30 103 -7 73z m-781 -2216 c2 -391 0 -712 -5
-714 -4 -3 -62 21 -128 52 -142 66 -258 118 -444 200 -74 32 -161 71 -192 85
-31 14 -62 26 -67 26 -6 0 -11 2 -11 5 0 3 107 139 237 303 274 344 349 438
493 620 57 72 107 132 110 132 3 0 6 -319 7 -709z"/>
<path d="M9374 11458 c-85 -73 -290 -254 -299 -264 -10 -11 -89 -81 -156 -138
-19 -16 -74 -66 -124 -111 -49 -45 -151 -135 -226 -201 -75 -65 -181 -160
-235 -209 -54 -50 -116 -104 -137 -121 l-38 -31 131 -23 c71 -13 130 -27 130
-30 0 -3 -43 -78 -96 -165 -53 -88 -138 -230 -188 -315 -51 -85 -101 -168
-112 -185 -17 -26 -17 -28 -2 -22 10 3 68 42 130 85 62 44 196 136 298 206
102 70 244 168 315 219 l130 91 47 111 c26 60 69 164 96 230 149 357 328 780
358 844 14 29 23 55 21 58 -3 2 -22 -11 -43 -29z"/>
</g>
</svg>
