<?xml version="1.0" standalone="no"?>
<svg version="1.0" xmlns="http://www.w3.org/2000/svg"
 width="2048" height="2048" viewBox="0 0 2048 2048"
 preserveAspectRatio="xMidYMid meet">

<g transform="translate(684, 34)">
<g transform="translate(0,2048) scale(0.1,-0.1)" fill="#000000" stroke="none">
<path d="M2991 11998 c121 -359 319 -952 440 -1318 121 -366 231 -694 244
-730 13 -36 50 -145 82 -242 31 -98 61 -178 65 -178 5 0 41 28 81 63 39 34
100 85 135 112 104 83 142 114 252 204 58 48 170 140 250 204 80 64 190 153
246 199 56 46 147 120 203 166 55 46 101 86 100 90 0 4 -24 27 -52 51 -29 24
-97 85 -152 135 -54 50 -127 116 -160 146 -34 30 -83 75 -111 100 -27 25 -101
92 -164 150 -63 58 -180 164 -260 235 -80 71 -147 132 -150 135 -3 3 -50 45
-105 94 -55 50 -102 92 -105 96 -6 8 -105 97 -355 320 -77 68 -227 203 -334
300 -271 245 -355 319 -362 320 -4 0 92 -294 212 -652z"/>
<path d="M5207 11458 c-336 -312 -421 -398 -406 -412 50 -45 267 -233 330
-287 42 -35 121 -103 175 -150 54 -47 131 -112 169 -144 97 -82 102 -88 109
-153 8 -71 62 -665 72 -787 l7 -90 33 71 c33 70 173 420 293 729 34 88 79 201
100 250 21 50 58 140 81 200 l43 110 61 27 c34 15 147 63 251 107 l190 80 -40
16 c-22 10 -121 56 -220 105 -168 81 -183 91 -222 141 -22 30 -71 92 -108 139
-37 47 -70 91 -74 97 -4 8 -60 18 -148 28 -77 8 -215 24 -306 35 -259 31 -224
42 -390 -112z m678 -413 c87 -52 162 -98 167 -103 5 -5 -60 -87 -148 -188 -86
-98 -190 -220 -232 -271 -43 -50 -81 -90 -87 -89 -5 1 -27 45 -49 97 -45 111
-216 550 -219 564 -2 9 333 83 384 84 15 1 89 -37 184 -94z"/>
<path d="M1660 11492 c0 -9 116 -123 295 -291 193 -181 448 -421 680 -641 50
-47 126 -119 170 -160 150 -141 429 -405 549 -521 67 -63 146 -138 176 -165
30 -27 60 -56 67 -64 21 -28 24 -3 5 46 -11 27 -104 303 -207 614 -103 311
-207 621 -230 690 l-42 125 -144 36 c-79 20 -198 50 -264 68 -66 17 -322 80
-568 141 -247 60 -457 115 -468 120 -10 6 -19 7 -19 2z"/>
<path d="M5073 10347 c-93 -75 -334 -271 -438 -357 -24 -19 -78 -63 -122 -98
-83 -67 -235 -192 -472 -388 l-147 -121 -78 -204 c-207 -540 -232 -607 -225
-614 2 -2 168 62 369 141 201 80 466 185 590 234 124 48 378 149 565 223 187
74 357 140 378 147 20 6 37 16 37 22 0 9 -110 365 -245 793 -29 94 -62 199
-73 235 -11 35 -23 65 -28 67 -5 1 -55 -35 -111 -80z"/>
<path d="M3598 9153 c-25 -21 -143 -119 -263 -218 -120 -99 -302 -250 -404
-336 -102 -86 -283 -235 -401 -333 -118 -97 -242 -200 -274 -229 -33 -29 -71
-61 -86 -72 -45 -34 -170 -148 -167 -152 2 -1 39 1 83 7 43 5 169 19 279 30
312 32 747 80 780 85 22 4 35 15 47 38 9 17 101 257 203 532 103 275 203 540
222 588 19 49 33 91 30 93 -3 3 -25 -12 -49 -33z"/>
</g>
</g>
</svg>
